# xmcd
#
# Track frame offsets:
#	150
#	13781
#	26886
#	44482
#	58947
#	70020
#	83238
#	94189
#	106153
#	121238
#	135043
#	149139
#	166057
#	179111
#	192638
#	208039
#	221419
#	237269
#	249587
#	263937
#	275145
#	282516
#	292486
#	304612
#	317308
#	332062
#	344446
#
# Disc length: 4766 seconds
# Revision: 0
# Processed by: cddbd v1.5.2PL0 Copyright (c) Steve Scherf et al.
# Submitted via: dBpowerAMP V12.0
#
DISCID=b0129c1b
DTITLE=Tex Morton - Sings the Hits of Country Music's Yesteryear
DYEAR=2019
DGENRE=Country
TTITLE0=Wabash Cannonball
TTITLE1=I've Got You Right Out Of My Mind
TTITLE2=Medley
TTITLE3=Don't Make Me Go To Bed And I'll Be Good
TTITLE4=She Was Happy Till She Met You
TTITLE5=One Golden Curl
TTITLE6=Wrap Me Up With My Stockwhip and Blanket
TTITLE7=Slipping Around
TTITLE8=He Holds The Lantern
TTITLE9=Frankie and Johnny
TTITLE10=My Daddy Is Only A Picture
TTITLE11=In Eleven More Months and Ten More Days
TTITLE12=You And My old Guitar
TTITLE13=The Cat Came Back
TTITLE14=Old Man Duff
TTITLE15=I've Known The Truth
TTITLE16=The Story Of Parson Joe
TTITLE17=Just Because
TTITLE18=May I Sleep In Your Barn Tonight Mister
TTITLE19=Rose Of Shenandoah Valley
TTITLE20=They Cut Down The Old pine Tree
TTITLE21=Waiting For A Train
TTITLE22=When You Have No One To Love You
TTITLE23=Treasures Untold
TTITLE24=The Letter Edged In Black
TTITLE25=I'll Never Slip Around Again
TTITLE26=Railroad Boomer
EXTD=
EXTT0=
EXTT1=
EXTT2=
EXTT3=
EXTT4=
EXTT5=
EXTT6=
EXTT7=
EXTT8=
EXTT9=
EXTT10=
EXTT11=
EXTT12=
EXTT13=
EXTT14=
EXTT15=
EXTT16=
EXTT17=
EXTT18=
EXTT19=
EXTT20=
EXTT21=
EXTT22=
EXTT23=
EXTT24=
EXTT25=
EXTT26=
PLAYORDER=
